<?xml version="1.0" encoding="UTF-8"?>
<svg id="Capa_1" data-name="Capa 1" xmlns="http://www.w3.org/2000/svg" viewBox="0 0 433.2 500.21">
  <defs>
    <style>
      .cls-1, .cls-2 {
        fill: #db9600;
      }

      .cls-3 {
        fill: #211915;
        font-family: Bahnschrift-Bold, Bahnschrift;
        font-size: 210.97px;
        font-variation-settings: 'wght' 700, 'wdth' 100;
        font-weight: 700;
        letter-spacing: -.04em;
        stroke: #211915;
      }

      .cls-3, .cls-2 {
        stroke-miterlimit: 10;
      }

      .cls-2 {
        stroke: #db9600;
      }
    </style>
  </defs>
  <text class="cls-3" transform="translate(105.64 321.98)"><tspan x="0" y="0">JS</tspan></text>
  <path class="cls-1" d="m361.62,159.07l-107.73-62.2-37.3-21.53-34.88,20.14-110.14,63.59-6.33,3.66v174.77l116.47,67.24,34.88,20.14,37.3-21.53,114.06-65.85v-174.77l-6.33-3.66Zm-32.2,156.17l-37.18,21.47-38.34,22.14-37.3,21.53-34.88-20.14-40.75-23.53-37.18-21.47v-130.27l44.86-25.9,33.08-19.1,34.88-20.14,37.3,21.53,30.66,17.71,44.86,25.9v130.27Z"/>
  <path class="cls-2" d="m423.66,120.13L269.85,31.32,216.6.58l-49.8,28.75L9.54,120.13l-9.04,5.22v249.53l166.3,96.01,49.8,28.75,53.25-30.74,162.85-94.02V125.35l-9.04-5.22Zm-45.98,222.98l-53.09,30.65-54.74,31.61-53.25,30.74-49.8-28.75-58.19-33.6-53.09-30.65v-186l64.05-36.98,47.23-27.27,49.8-28.75,53.25,30.74,43.78,25.28,64.05,36.98v186Z"/>
</svg>